<svg id="svg" version="1.1" xmlns="http://www.w3.org/2000/svg" xmlns:xlink="http://www.w3.org/1999/xlink" width="400" height="400" viewBox="0, 0, 400,400"><g id="svgg"><path id="path0" d="M70.400 199.600 L 70.400 326.400 200.000 326.400 L 329.600 326.400 329.600 199.600 L 329.600 72.800 200.000 72.800 L 70.400 72.800 70.400 199.600 M135.610 185.826 C 136.164 187.284,136.101 192.139,135.520 192.720 C 135.165 193.075,131.324 193.200,120.720 193.200 L 106.400 193.200 106.400 201.406 L 106.400 209.612 118.067 209.506 L 129.734 209.400 129.733 207.962 C 129.733 205.027,130.061 205.138,121.663 205.235 C 112.504 205.340,113.021 205.587,113.354 201.261 C 113.691 196.876,112.609 197.190,127.000 197.303 L 139.400 197.400 139.509 204.658 L 139.618 211.916 137.551 214.178 C 134.254 217.785,135.314 217.600,117.920 217.597 C 100.610 217.594,102.106 217.862,98.685 214.159 L 96.800 212.117 96.800 200.901 L 96.800 189.684 99.680 187.242 L 102.559 184.800 118.890 184.800 L 135.220 184.800 135.610 185.826 M152.885 184.900 C 152.931 184.955,153.066 190.310,153.185 196.800 L 153.400 208.600 164.072 208.706 L 174.744 208.813 174.872 212.438 C 175.074 218.153,176.475 217.600,161.793 217.600 C 151.745 217.600,148.939 217.485,148.080 217.040 C 146.868 216.411,143.975 213.448,143.248 212.091 C 142.742 211.144,142.507 185.998,142.997 185.205 C 143.207 184.866,152.609 184.575,152.885 184.900 M211.800 185.571 C 217.222 189.042,217.600 190.051,217.600 201.039 C 217.600 211.203,217.501 211.671,214.719 214.643 C 211.845 217.713,212.542 217.600,196.549 217.600 L 182.258 217.600 179.329 214.671 L 176.400 211.742 176.400 201.214 L 176.400 190.687 178.700 188.409 C 182.644 184.503,181.156 184.800,196.789 184.801 C 209.725 184.803,210.676 184.852,211.800 185.571 M255.929 188.151 L 259.200 191.502 259.200 196.725 C 259.200 203.154,259.058 203.543,256.027 205.383 C 253.017 207.212,252.852 206.636,257.806 211.600 C 263.504 217.310,263.395 217.600,255.544 217.600 L 250.636 217.600 245.853 212.800 L 241.071 208.000 235.349 208.000 L 229.626 208.000 229.513 212.500 L 229.400 217.000 224.800 217.000 L 220.200 217.000 220.088 204.400 C 219.951 188.900,219.502 190.663,224.772 186.011 L 226.144 184.800 239.401 184.800 L 252.658 184.800 255.929 188.151 M276.000 191.001 L 282.200 197.189 288.416 190.983 L 294.631 184.778 300.616 184.889 C 309.239 185.049,309.680 184.249,291.310 201.780 L 287.620 205.302 287.510 211.351 L 287.400 217.400 282.200 217.400 L 277.000 217.400 276.890 211.358 L 276.780 205.316 273.890 202.554 C 253.861 183.411,254.642 184.796,263.887 184.806 L 269.800 184.813 276.000 191.001 M229.684 196.493 L 229.800 199.800 239.550 199.907 C 251.012 200.033,250.479 200.215,250.316 196.238 L 250.200 193.400 239.884 193.293 L 229.567 193.186 229.684 196.493 M186.980 194.508 C 186.870 194.795,186.829 198.083,186.890 201.815 L 187.000 208.600 197.000 208.600 L 207.000 208.600 207.000 201.400 L 207.000 194.200 197.090 194.093 C 189.235 194.008,187.139 194.094,186.980 194.508 " stroke="none" fill="#131b83" fill-rule="evenodd"></path><path id="path1" d="M102.578 185.984 C 102.126 186.167,100.731 187.253,99.478 188.398 L 97.200 190.480 97.200 201.152 L 97.200 211.823 99.711 214.312 L 102.222 216.800 118.022 216.800 L 133.823 216.800 136.312 214.289 L 138.800 211.778 138.800 204.889 L 138.800 198.000 126.618 198.000 L 114.436 198.000 114.191 199.309 C 114.056 200.029,114.002 201.424,114.073 202.409 L 114.200 204.200 121.770 204.309 C 126.528 204.378,129.537 204.582,129.870 204.858 C 130.753 205.591,130.568 209.482,129.626 209.986 C 128.468 210.606,106.705 210.545,106.080 209.920 C 105.402 209.242,105.402 193.558,106.080 192.880 C 106.435 192.525,110.276 192.400,120.880 192.400 L 135.200 192.400 135.200 189.247 C 135.200 186.315,135.137 186.076,134.300 185.852 C 132.922 185.483,103.513 185.605,102.578 185.984 M143.867 185.867 C 143.720 186.013,143.600 191.879,143.600 198.901 L 143.600 211.669 146.069 214.240 L 148.537 216.811 161.369 216.705 L 174.200 216.600 174.318 213.696 C 174.498 209.245,175.227 209.539,164.128 209.585 C 158.541 209.609,154.075 209.457,153.459 209.223 L 152.400 208.820 152.400 197.210 L 152.400 185.600 148.267 185.600 C 145.993 185.600,144.013 185.720,143.867 185.867 M182.600 185.981 C 182.160 186.163,180.765 187.287,179.500 188.480 L 177.200 190.647 177.200 201.109 L 177.200 211.571 179.646 214.185 L 182.092 216.800 196.757 216.800 L 211.423 216.800 213.912 214.289 L 216.400 211.778 216.400 201.084 L 216.400 190.389 214.300 188.397 C 213.145 187.301,211.570 186.225,210.800 186.005 C 209.114 185.523,183.761 185.502,182.600 185.981 M225.800 186.070 C 225.360 186.316,224.055 187.457,222.900 188.606 L 220.800 190.695 220.800 203.540 L 220.800 216.385 221.705 216.612 C 222.202 216.737,223.957 216.785,225.605 216.719 L 228.600 216.600 228.715 212.423 C 228.866 206.943,228.532 207.200,235.508 207.200 L 241.318 207.200 245.914 212.000 L 250.511 216.800 255.855 216.800 C 262.428 216.800,262.390 216.972,257.000 211.600 C 252.097 206.714,252.176 206.960,254.985 205.280 C 258.532 203.159,258.400 203.477,258.400 197.022 L 258.400 191.302 255.399 188.451 L 252.398 185.600 239.499 185.612 C 230.780 185.620,226.341 185.769,225.800 186.070 M258.196 186.006 C 258.058 186.229,259.893 188.254,262.273 190.504 C 264.653 192.755,268.718 196.658,271.306 199.178 C 273.895 201.699,276.235 203.897,276.506 204.065 C 276.848 204.275,277.062 206.251,277.200 210.484 L 277.400 216.600 282.100 216.713 L 286.800 216.825 286.800 210.953 L 286.800 205.080 288.900 203.086 C 290.055 201.989,294.307 197.920,298.348 194.045 C 302.390 190.170,305.844 186.943,306.026 186.874 C 307.857 186.175,305.468 185.600,300.731 185.600 C 294.378 185.600,295.037 185.260,288.146 192.092 C 285.037 195.175,282.305 197.631,282.077 197.549 C 281.848 197.467,279.149 194.943,276.079 191.940 C 273.009 188.937,270.127 186.282,269.675 186.040 C 268.621 185.476,258.542 185.446,258.196 186.006 M250.167 192.643 C 250.966 192.949,251.097 199.543,250.320 200.320 C 249.504 201.136,229.359 200.992,229.043 200.167 C 228.597 199.004,228.780 193.380,229.280 192.880 C 229.788 192.372,248.897 192.155,250.167 192.643 M207.586 193.974 C 208.308 195.323,208.124 208.219,207.371 208.971 C 206.522 209.821,187.790 209.920,186.642 209.080 C 185.799 208.464,185.640 194.716,186.464 193.722 C 187.271 192.751,207.058 192.987,207.586 193.974 " stroke="none" fill="#f5f6f8" fill-rule="evenodd"></path><path id="path2" d="M101.360 186.352 C 100.502 186.985,99.122 188.211,98.293 189.076 L 96.786 190.648 96.900 201.224 L 97.014 211.800 97.107 201.134 L 97.200 190.467 99.661 188.240 C 102.786 185.412,101.823 185.534,119.862 185.678 C 128.256 185.745,135.041 185.665,134.939 185.500 C 134.836 185.335,127.590 185.200,118.836 185.200 L 102.920 185.200 101.360 186.352 M143.467 185.467 C 143.320 185.613,143.200 191.555,143.200 198.670 L 143.200 211.608 145.300 213.962 C 146.455 215.257,147.662 216.434,147.981 216.577 C 148.301 216.720,147.444 215.672,146.076 214.247 L 143.589 211.658 143.694 198.729 L 143.800 185.800 148.200 185.579 L 152.600 185.358 148.167 185.279 C 145.728 185.236,143.613 185.320,143.467 185.467 M182.661 185.500 C 182.559 185.665,188.264 185.745,195.338 185.677 C 210.614 185.530,211.116 185.582,213.331 187.515 L 215.000 188.971 213.800 187.636 C 211.642 185.236,211.387 185.200,196.436 185.200 C 188.962 185.200,182.764 185.335,182.661 185.500 M225.549 185.865 C 225.053 186.467,225.084 186.486,225.874 186.065 C 226.486 185.739,230.587 185.600,239.572 185.600 L 252.398 185.600 255.499 188.456 L 258.600 191.311 255.508 188.256 L 252.416 185.200 239.257 185.200 C 227.471 185.200,226.041 185.269,225.549 185.865 M258.261 185.500 C 258.158 185.665,260.482 185.745,263.423 185.679 C 267.074 185.596,269.063 185.712,269.686 186.044 C 270.516 186.486,270.550 186.470,270.051 185.865 C 269.470 185.161,258.679 184.826,258.261 185.500 M288.648 191.289 L 282.576 197.400 288.188 191.943 C 291.275 188.942,294.193 186.287,294.674 186.043 C 295.798 185.473,305.856 185.444,306.137 186.010 C 306.249 186.236,306.294 186.191,306.237 185.910 C 306.161 185.532,304.661 185.371,300.427 185.289 L 294.720 185.178 288.648 191.289 M152.590 197.367 C 152.599 207.304,152.685 208.957,153.200 209.097 C 153.638 209.217,153.666 209.166,153.306 208.911 C 152.939 208.651,152.783 205.639,152.697 197.180 L 152.581 185.800 152.590 197.367 M179.228 188.311 L 176.800 190.621 176.800 201.062 C 176.800 210.536,176.865 211.551,177.500 212.032 C 178.096 212.482,178.125 212.478,177.700 212.001 C 177.327 211.583,177.200 208.794,177.200 201.041 L 177.200 190.642 179.685 188.321 C 181.051 187.044,182.054 186.000,181.913 186.000 C 181.772 186.000,180.564 187.040,179.228 188.311 M135.278 189.300 L 135.200 192.400 120.880 192.400 C 110.276 192.400,106.435 192.525,106.080 192.880 C 105.732 193.228,105.624 195.618,105.688 201.580 L 105.775 209.800 105.988 201.400 L 106.200 193.000 120.714 192.895 C 132.385 192.811,135.269 192.685,135.434 192.255 C 135.547 191.961,135.576 190.478,135.498 188.960 L 135.357 186.200 135.278 189.300 M270.800 186.715 C 270.800 186.884,271.160 187.330,271.600 187.707 C 272.040 188.084,272.400 188.254,272.400 188.085 C 272.400 187.916,272.040 187.470,271.600 187.093 C 271.160 186.716,270.800 186.546,270.800 186.715 M301.289 191.231 C 298.808 193.656,297.098 195.463,297.489 195.247 C 298.221 194.842,306.337 186.791,305.992 186.811 C 305.887 186.818,303.770 188.807,301.289 191.231 M222.045 188.997 L 220.389 190.794 220.494 203.664 C 220.577 213.707,220.712 216.556,221.110 216.637 C 221.390 216.694,221.436 216.649,221.210 216.537 C 220.943 216.404,220.800 211.884,220.800 203.558 L 220.800 190.782 222.451 188.991 C 223.359 188.006,224.012 187.200,223.902 187.200 C 223.792 187.200,222.956 188.009,222.045 188.997 M259.823 188.402 C 260.180 189.182,276.195 204.402,276.651 204.394 C 276.843 204.391,276.765 204.239,276.479 204.057 C 276.192 203.875,274.032 201.849,271.679 199.555 C 262.140 190.256,259.562 187.831,259.823 188.402 M216.575 201.000 C 216.575 206.940,216.631 209.426,216.699 206.524 C 216.767 203.622,216.767 198.762,216.699 195.724 C 216.631 192.686,216.575 195.060,216.575 201.000 M258.558 197.000 C 258.558 200.080,258.621 201.287,258.697 199.682 C 258.773 198.078,258.773 195.558,258.696 194.082 C 258.619 192.607,258.557 193.920,258.558 197.000 M229.280 192.880 C 228.780 193.380,228.597 199.004,229.043 200.167 C 229.431 201.180,249.654 201.116,250.451 200.100 C 250.939 199.477,250.928 199.456,250.351 199.907 C 249.857 200.293,247.272 200.388,239.551 200.307 L 229.400 200.200 229.400 196.600 L 229.400 193.000 240.063 193.000 C 245.927 193.000,250.517 192.868,250.263 192.706 C 249.433 192.179,229.818 192.342,229.280 192.880 M278.600 194.400 C 279.459 195.280,280.252 196.000,280.362 196.000 C 280.472 196.000,279.859 195.280,279.000 194.400 C 278.141 193.520,277.348 192.800,277.238 192.800 C 277.128 192.800,277.741 193.520,278.600 194.400 M186.464 193.722 C 185.640 194.716,185.799 208.464,186.642 209.080 C 187.426 209.654,206.187 209.850,207.063 209.294 C 207.318 209.132,202.974 209.054,197.411 209.119 C 184.923 209.266,186.144 210.169,186.400 200.973 L 186.600 193.800 197.062 193.800 C 202.816 193.800,207.440 193.665,207.338 193.500 C 206.985 192.929,186.946 193.143,186.464 193.722 M207.765 201.400 C 207.766 205.360,207.826 206.926,207.898 204.880 C 207.971 202.834,207.971 199.594,207.898 197.680 C 207.824 195.766,207.765 197.440,207.765 201.400 M291.500 200.570 L 286.800 205.112 286.800 210.980 L 286.800 216.847 281.999 216.724 C 279.359 216.656,277.199 216.741,277.199 216.912 C 277.200 217.084,279.405 217.174,282.100 217.112 L 287.000 217.000 287.110 211.156 L 287.221 205.311 291.977 200.656 C 294.593 198.095,296.613 196.006,296.466 196.014 C 296.320 196.021,294.085 198.071,291.500 200.570 M114.140 198.211 C 114.009 198.554,114.013 198.947,114.151 199.084 C 114.288 199.221,114.400 199.033,114.400 198.667 C 114.400 198.059,115.480 198.000,126.600 198.000 L 138.800 198.000 138.800 204.889 L 138.800 211.778 136.312 214.289 C 134.943 215.670,133.941 216.800,134.085 216.800 C 134.229 216.800,135.441 215.675,136.778 214.300 L 139.210 211.800 139.105 204.800 L 139.000 197.800 126.690 197.694 C 115.850 197.601,114.351 197.663,114.140 198.211 M113.747 202.600 L 113.800 204.600 121.800 204.800 L 129.800 205.000 130.033 207.400 L 130.266 209.800 130.333 207.549 C 130.427 204.407,130.500 204.435,121.770 204.309 L 114.200 204.200 113.947 202.400 L 113.694 200.600 113.747 202.600 M252.832 206.807 C 252.814 207.141,254.690 209.298,257.000 211.600 C 259.310 213.902,261.214 216.059,261.232 216.393 C 261.256 216.865,261.312 216.878,261.480 216.455 C 261.611 216.126,260.033 214.225,257.493 211.655 C 255.182 209.315,253.194 207.130,253.077 206.800 C 252.889 206.272,252.859 206.272,252.832 206.807 M229.277 207.708 C 228.813 208.266,228.426 216.939,228.885 216.477 C 229.042 216.319,229.222 214.302,229.285 211.995 L 229.400 207.800 235.400 207.584 L 241.400 207.367 235.549 207.284 C 231.223 207.222,229.588 207.332,229.277 207.708 M276.951 211.600 C 276.951 214.130,277.016 215.165,277.096 213.900 C 277.175 212.635,277.175 210.565,277.096 209.300 C 277.016 208.035,276.951 209.070,276.951 211.600 M163.600 209.217 L 153.800 209.435 163.760 209.490 C 171.514 209.534,173.794 209.663,174.054 210.073 C 174.311 210.479,174.389 210.449,174.394 209.943 C 174.403 208.987,174.303 208.980,163.600 209.217 M112.124 210.299 C 115.383 210.367,120.603 210.366,123.724 210.299 C 126.846 210.231,124.180 210.176,117.800 210.177 C 111.420 210.177,108.866 210.232,112.124 210.299 M99.400 214.400 C 100.706 215.720,101.865 216.800,101.975 216.800 C 102.085 216.800,101.106 215.720,99.800 214.400 C 98.494 213.080,97.335 212.000,97.225 212.000 C 97.115 212.000,98.094 213.080,99.400 214.400 M213.787 214.500 L 211.400 217.000 213.900 214.613 C 215.275 213.299,216.400 212.174,216.400 212.113 C 216.400 211.817,216.005 212.178,213.787 214.500 M248.200 214.800 C 249.283 215.900,250.260 216.800,250.370 216.800 C 250.480 216.800,249.683 215.900,248.600 214.800 C 247.517 213.700,246.540 212.800,246.430 212.800 C 246.320 212.800,247.117 213.700,248.200 214.800 M161.600 216.800 L 149.000 217.017 161.476 217.109 C 169.463 217.167,174.042 217.056,174.200 216.800 C 174.336 216.580,174.392 216.441,174.324 216.491 C 174.256 216.542,168.530 216.681,161.600 216.800 M110.274 217.099 C 114.494 217.164,121.514 217.164,125.874 217.100 C 130.233 217.035,126.780 216.982,118.200 216.982 C 109.620 216.982,106.053 217.035,110.274 217.099 M189.926 217.100 C 193.955 217.165,200.435 217.165,204.326 217.099 C 208.217 217.034,204.920 216.980,197.000 216.981 C 189.080 216.981,185.897 217.034,189.926 217.100 M253.500 217.096 C 254.875 217.174,257.125 217.174,258.500 217.096 C 259.875 217.018,258.750 216.954,256.000 216.954 C 253.250 216.954,252.125 217.018,253.500 217.096 " stroke="none" fill="#8c8cbc" fill-rule="evenodd"></path><path id="path3" d="M99.685 187.238 C 98.098 188.583,96.800 189.836,96.800 190.023 C 96.800 190.209,97.655 189.540,98.700 188.536 C 102.419 184.964,100.974 185.203,118.820 185.201 C 130.928 185.200,134.764 185.317,135.170 185.700 C 135.598 186.104,135.665 186.084,135.517 185.600 C 135.358 185.082,133.104 184.986,118.952 184.896 L 102.570 184.791 99.685 187.238 M142.997 185.204 C 142.767 185.578,142.661 209.853,142.884 211.200 C 142.939 211.530,143.077 205.860,143.192 198.600 L 143.400 185.400 148.000 185.400 L 152.600 185.400 152.706 196.786 C 152.765 203.049,152.945 208.305,153.106 208.467 C 153.352 208.713,153.128 185.199,152.882 184.900 C 152.616 184.576,143.207 184.866,142.997 185.204 M181.900 185.503 C 181.295 185.878,180.800 186.337,180.800 186.522 C 180.800 186.707,181.274 186.485,181.854 186.029 C 182.874 185.227,183.353 185.200,196.674 185.200 C 211.330 185.200,211.622 185.235,213.396 187.196 C 213.833 187.679,214.553 188.259,214.996 188.486 C 215.971 188.985,212.624 186.002,211.438 185.314 C 209.965 184.460,183.307 184.631,181.900 185.503 M225.200 185.656 L 224.200 186.495 225.286 185.847 C 226.227 185.286,228.111 185.200,239.432 185.200 L 252.492 185.200 255.746 188.289 L 259.000 191.379 255.809 188.089 L 252.619 184.800 239.409 184.809 C 226.589 184.818,226.171 184.842,225.200 185.656 M257.867 185.067 C 257.720 185.213,257.600 185.519,257.600 185.747 C 257.600 185.994,257.793 185.967,258.080 185.680 C 258.407 185.353,260.331 185.200,264.131 185.200 L 269.703 185.200 275.951 191.382 L 282.200 197.564 288.440 191.371 L 294.679 185.177 300.440 185.289 C 308.331 185.441,308.505 184.925,296.780 196.164 L 287.221 205.329 287.110 211.164 L 287.000 217.000 282.232 217.113 C 278.700 217.197,277.370 217.093,277.101 216.713 C 276.825 216.322,276.778 216.342,276.903 216.800 C 277.038 217.294,277.980 217.400,282.233 217.400 L 287.400 217.400 287.510 211.351 L 287.620 205.302 291.310 201.780 C 309.680 184.249,309.239 185.049,300.616 184.889 L 294.631 184.778 288.416 190.983 L 282.200 197.189 276.000 191.001 L 269.800 184.813 263.967 184.806 C 260.758 184.803,258.013 184.920,257.867 185.067 M135.589 189.400 L 135.400 192.600 120.800 192.800 L 106.200 193.000 106.200 201.400 L 106.200 209.800 117.774 209.906 C 124.139 209.965,129.486 209.875,129.654 209.706 C 129.823 209.538,124.660 209.450,118.180 209.512 L 106.400 209.623 106.400 201.412 L 106.400 193.200 120.751 193.200 C 137.310 193.200,136.100 193.524,135.907 189.137 L 135.778 186.200 135.589 189.400 M258.287 187.609 C 258.995 188.351,259.642 188.878,259.725 188.779 C 259.808 188.681,259.229 188.073,258.438 187.429 L 257.000 186.258 258.287 187.609 M178.400 188.600 C 177.428 189.590,176.723 190.400,176.833 190.400 C 176.943 190.400,177.828 189.590,178.800 188.600 C 179.772 187.610,180.477 186.800,180.367 186.800 C 180.257 186.800,179.372 187.610,178.400 188.600 M222.068 188.473 C 219.864 190.656,219.959 189.888,220.088 204.400 L 220.200 217.000 224.800 217.000 L 229.400 217.000 229.513 212.500 L 229.626 208.000 235.333 208.000 C 239.333 208.000,241.208 208.150,241.601 208.500 C 242.079 208.926,242.082 208.895,241.623 208.290 C 241.143 207.657,240.449 207.591,235.242 207.690 L 229.400 207.800 229.287 212.313 L 229.174 216.827 224.887 216.713 L 220.600 216.600 220.494 203.689 L 220.389 190.778 222.249 188.789 C 224.512 186.369,224.397 186.167,222.068 188.473 M216.386 189.974 C 216.639 190.447,216.811 194.839,216.828 201.274 C 216.845 207.524,216.996 211.475,217.200 211.000 C 218.330 208.371,217.456 189.200,216.206 189.200 C 216.077 189.200,216.158 189.548,216.386 189.974 M261.200 190.044 C 261.200 190.311,269.088 198.044,273.800 202.396 L 277.000 205.352 273.600 201.995 C 264.624 193.132,261.200 189.832,261.200 190.044 M176.493 201.171 L 176.400 211.742 179.329 214.671 L 182.258 217.600 196.629 217.594 C 204.533 217.591,211.208 217.456,211.463 217.294 C 211.717 217.132,205.250 217.051,197.092 217.114 L 182.258 217.229 179.536 214.446 L 176.813 211.664 176.700 201.132 L 176.586 190.600 176.493 201.171 M258.958 197.000 C 258.958 200.080,259.021 201.287,259.097 199.682 C 259.173 198.078,259.173 195.558,259.096 194.082 C 259.019 192.607,258.957 193.920,258.958 197.000 M229.467 193.067 C 229.133 193.400,229.114 198.910,229.443 199.767 C 229.655 200.321,230.930 200.400,239.614 200.400 C 250.121 200.400,250.810 200.281,250.794 198.471 C 250.790 198.012,250.629 198.115,250.282 198.800 L 249.776 199.800 239.788 199.800 L 229.800 199.800 229.684 196.487 L 229.567 193.174 239.946 193.287 C 245.654 193.349,250.241 193.265,250.139 193.100 C 249.909 192.729,229.836 192.697,229.467 193.067 M186.900 193.865 C 186.341 194.090,186.149 208.197,186.700 208.539 C 186.865 208.641,187.000 205.456,187.000 201.462 L 187.000 194.200 197.000 194.200 L 207.000 194.200 207.000 201.400 L 207.000 208.600 197.200 208.811 L 187.400 209.021 197.020 209.111 C 204.072 209.176,206.768 209.072,207.120 208.720 C 207.626 208.214,207.835 195.478,207.357 194.233 C 207.119 193.611,188.364 193.274,186.900 193.865 M114.100 197.462 C 113.825 197.575,113.618 198.147,113.640 198.733 L 113.680 199.800 113.958 198.800 L 114.236 197.800 126.618 197.800 L 139.000 197.800 139.109 204.867 L 139.218 211.935 136.961 214.467 L 134.703 217.000 137.161 214.480 L 139.618 211.960 139.509 204.680 L 139.400 197.400 127.000 197.329 C 120.180 197.289,114.375 197.349,114.100 197.462 M113.272 202.476 C 113.178 205.435,112.876 205.336,121.626 205.235 C 128.506 205.156,129.167 205.209,129.554 205.874 C 129.919 206.502,129.977 206.511,129.988 205.943 C 130.008 204.876,128.969 204.741,121.486 204.839 C 113.572 204.943,113.708 204.987,113.496 202.200 L 113.344 200.200 113.272 202.476 M257.400 204.099 L 256.200 205.312 257.500 204.429 C 258.215 203.943,258.800 203.378,258.800 203.173 C 258.800 202.685,258.797 202.687,257.400 204.099 M253.384 206.825 C 253.092 207.299,254.283 208.800,254.951 208.800 C 255.186 208.800,254.966 208.511,254.462 208.158 C 253.957 207.804,253.642 207.267,253.761 206.958 C 254.013 206.302,253.763 206.213,253.384 206.825 M158.900 209.099 C 161.485 209.168,165.715 209.168,168.300 209.099 C 170.885 209.029,168.770 208.972,163.600 208.972 C 158.430 208.972,156.315 209.029,158.900 209.099 M174.400 212.348 C 174.510 214.300,174.540 216.197,174.468 216.564 C 174.347 217.173,173.200 217.221,161.205 217.115 C 153.983 217.052,148.283 217.132,148.537 217.294 C 149.755 218.068,174.414 217.632,174.713 216.831 C 175.064 215.892,174.851 208.800,174.472 208.799 C 174.322 208.799,174.290 210.396,174.400 212.348 M258.300 212.408 C 262.902 217.161,262.879 217.200,255.516 217.200 L 250.697 217.200 247.048 213.723 L 243.400 210.246 247.042 213.923 L 250.684 217.600 255.568 217.600 C 263.216 217.600,263.449 217.186,258.500 212.391 L 255.000 209.000 258.300 212.408 M98.591 214.000 C 102.085 217.882,100.533 217.595,118.000 217.591 C 126.470 217.589,133.608 217.456,133.862 217.294 C 134.117 217.132,127.130 217.051,118.337 217.113 L 102.350 217.226 99.480 214.513 C 96.795 211.975,96.738 211.942,98.591 214.000 M143.200 212.097 C 143.200 212.253,144.214 213.420,145.454 214.690 C 146.693 215.961,147.458 216.643,147.154 216.208 C 146.323 215.018,143.200 211.772,143.200 212.097 M214.570 214.214 C 213.507 215.432,212.630 216.480,212.619 216.542 C 212.609 216.604,213.545 215.694,214.700 214.518 C 216.625 212.559,217.058 212.000,216.651 212.000 C 216.569 212.000,215.632 212.996,214.570 214.214 " stroke="none" fill="#7173b3" fill-rule="evenodd"></path><path id="path4" d="M250.514 196.200 C 250.517 197.300,250.595 197.703,250.687 197.095 C 250.779 196.486,250.777 195.586,250.682 195.095 C 250.587 194.603,250.511 195.100,250.514 196.200 " stroke="none" fill="#848cbd" fill-rule="evenodd"></path></g></svg>